<?xml version="1.0" standalone="no"?>
<!DOCTYPE svg PUBLIC "-//W3C//DTD SVG 20010904//EN"
 "http://www.w3.org/TR/2001/REC-SVG-20010904/DTD/svg10.dtd">
<svg version="1.0" xmlns="http://www.w3.org/2000/svg"
 width="1080.000000pt" height="1080.000000pt" viewBox="0 0 1080.000000 1080.000000"
 preserveAspectRatio="xMidYMid meet">

<g transform="translate(0.000000,1080.000000) scale(0.100000,-0.100000)"
fill="#000000" stroke="none">
<path d="M1231 6236 c-94 -31 -186 -117 -240 -223 -18 -36 -21 -60 -21 -161 0
-109 2 -123 26 -168 82 -156 266 -253 427 -224 111 20 257 108 257 155 0 21
-10 19 -66 -16 -90 -58 -123 -69 -212 -69 -122 0 -198 44 -257 151 -29 52 -30
59 -30 179 0 118 1 128 27 172 40 67 111 125 176 144 83 24 148 15 244 -34 44
-23 86 -42 94 -42 43 0 -15 61 -104 108 -55 29 -71 33 -169 37 -78 4 -120 1
-152 -9z"/>
<path d="M2705 6241 c-119 -19 -230 -106 -286 -224 -26 -56 -29 -72 -29 -163
0 -96 2 -105 36 -173 39 -79 112 -148 200 -192 44 -21 62 -24 169 -24 109 0
125 2 178 27 79 37 163 119 198 193 27 55 29 70 29 171 0 104 -2 115 -31 172
-36 72 -119 153 -194 188 -57 27 -185 38 -270 25z m194 -75 c44 -23 116 -108
137 -161 27 -70 27 -230 0 -299 -23 -60 -85 -130 -141 -158 -48 -25 -134 -28
-186 -6 -125 54 -196 210 -170 378 21 136 90 225 201 261 33 11 125 2 159 -15z"/>
<path d="M3950 5855 l0 -395 275 0 275 0 0 40 0 40 -63 0 c-35 0 -125 3 -200
7 l-137 6 0 349 0 348 -75 0 -75 0 0 -395z"/>
<path d="M5210 5855 l0 -396 193 6 c273 8 357 15 357 28 0 7 3 22 6 35 l6 22
-201 0 -201 0 0 350 0 350 -80 0 -80 0 0 -395z"/>
<path d="M6480 5855 l0 -395 300 0 300 0 0 45 0 45 -225 0 -225 0 0 133 0 134
130 9 c98 8 134 14 147 26 30 30 1 46 -95 53 -48 3 -108 8 -134 11 l-48 6 0
118 0 117 46 7 c26 3 83 6 128 6 116 1 227 16 237 31 5 8 9 22 9 32 0 16 -20
17 -285 17 l-285 0 0 -395z"/>
<path d="M8069 6240 c-107 -19 -208 -98 -269 -211 -29 -54 -30 -62 -30 -174 0
-139 13 -174 98 -267 65 -69 149 -114 242 -127 87 -12 157 1 248 44 78 37 94
36 107 -6 9 -26 31 -24 39 4 3 12 9 104 13 205 l6 182 -171 0 -172 0 0 -45 0
-45 95 0 95 0 0 -114 0 -114 -49 -21 c-68 -29 -185 -29 -242 -1 -49 26 -114
91 -142 145 -19 35 -22 56 -22 165 0 118 1 128 27 172 56 95 159 158 258 158
54 0 120 -23 190 -65 61 -37 88 -38 74 -1 -7 19 -67 62 -130 94 -48 24 -190
36 -265 22z"/>
<path d="M9270 5855 l0 -395 300 0 300 0 0 45 0 45 -220 0 -220 0 0 135 c0
101 3 135 13 136 133 6 250 18 257 25 5 5 13 24 16 42 l7 32 -147 0 -146 0 0
119 0 118 53 7 c28 3 113 6 187 6 74 0 141 4 148 9 8 5 12 17 10 27 -4 24 -59
30 -350 37 l-208 6 0 -394z"/>
<path d="M8690 5339 c-124 -20 -210 -95 -210 -184 0 -120 58 -176 274 -265
104 -44 146 -80 146 -129 0 -45 -30 -95 -72 -121 -25 -15 -51 -20 -103 -20
-92 0 -130 12 -199 60 -62 44 -81 49 -90 24 -8 -20 41 -66 121 -114 l58 -35
121 1 c111 0 125 2 177 28 98 47 144 135 126 239 -10 59 -51 93 -221 178 -86
43 -163 88 -172 101 -23 32 -20 90 5 122 59 75 161 75 289 0 69 -40 80 -42 80
-10 0 19 -14 34 -62 65 -86 57 -171 75 -268 60z"/>
<path d="M1780 4957 c0 -210 4 -388 9 -396 7 -11 59 -12 300 -6 l292 8 -3 31
c-3 30 -5 31 -63 37 -33 4 -131 7 -217 8 l-158 1 0 135 0 135 28 1 c85 1 234
17 241 25 5 5 12 24 16 42 l7 32 -146 0 -146 0 0 120 0 120 43 1 c23 1 112 4
197 8 l155 6 3 27 c3 26 3 26 -80 32 -46 3 -172 8 -280 11 l-198 5 0 -383z"/>
<path d="M3045 5330 c-9 -14 52 -185 174 -490 l107 -265 64 0 63 0 82 205
c106 265 183 477 187 515 2 24 -1 31 -19 33 -30 4 -45 -21 -110 -188 -72 -188
-160 -400 -167 -408 -12 -11 -25 17 -136 296 -88 220 -118 285 -134 291 -39
15 -105 21 -111 11z"/>
<path d="M4450 4950 l0 -390 301 0 300 0 -3 33 c-3 32 -3 32 -68 38 -36 4
-136 7 -222 8 l-158 1 0 133 0 134 143 9 142 9 3 31 c4 39 -10 44 -128 44 -47
0 -102 3 -122 6 l-38 7 0 118 0 119 113 1 c61 0 152 4 200 7 92 8 107 15 107
60 l0 22 -285 0 -285 0 0 -390z"/>
<path d="M5760 4950 l0 -390 39 0 c26 0 41 5 45 16 3 9 6 135 6 281 0 165 4
263 10 261 5 -1 70 -82 145 -178 74 -96 168 -217 208 -268 39 -52 74 -98 75
-103 2 -5 35 -9 73 -9 l69 0 0 390 0 390 -50 0 -50 0 0 -285 c0 -157 -3 -285
-7 -285 -8 0 -263 334 -378 493 l-56 77 -65 0 -64 0 0 -390z"/>
<path d="M7120 5295 l0 -45 130 0 130 0 0 -345 0 -345 75 0 75 0 0 344 0 344
110 7 c119 8 140 17 140 61 l0 24 -330 0 -330 0 0 -45z"/>
</g>
</svg>
